<svg width="71" height="71" viewBox="0 0 71 71" xmlns="http://www.w3.org/2000/svg">
    <g fill="#FFF" fill-rule="evenodd">
        <path d="M35.5 71a35.51 35.51 0 0 0 25.103-10.397A35.51 35.51 0 0 0 71 35.5a35.51 35.51 0 0 0-10.397-25.103A35.51 35.51 0 0 0 35.5 0a35.51 35.51 0 0 0-25.103 10.397A35.51 35.51 0 0 0 0 35.5 35.534 35.534 0 0 0 35.5 71zm0-67.742A32.255 32.255 0 0 1 58.3 12.7a32.255 32.255 0 0 1 9.442 22.8A32.255 32.255 0 0 1 58.3 58.3a32.255 32.255 0 0 1-22.8 9.442A32.255 32.255 0 0 1 12.7 58.3a32.255 32.255 0 0 1-9.442-22.8 32.287 32.287 0 0 1 9.45-22.79A32.284 32.284 0 0 1 35.5 3.258h.001z"/>
        <path d="M18.639 54c.287-.006.572-.086.818-.237L39.921 41.47c.237-.14.432-.336.572-.572L52.771 20.47a1.641 1.641 0 0 0-.249-1.993 1.64 1.64 0 0 0-1.992-.25L30.098 30.498a1.644 1.644 0 0 0-.566.563L17.254 51.485a1.639 1.639 0 0 0 1.385 2.514V54zm13.48-20.909 14.45-8.672-8.67 14.456-14.448 8.673 8.668-14.457zM59.992 39a2.993 2.993 0 0 0 2.776-1.847A2.999 2.999 0 1 0 57 36a3 3 0 0 0 2.992 3zm0-3.307a.313.313 0 0 1 .233.533.308.308 0 0 1-.342.074.315.315 0 0 1 .11-.607zM9.992 39a2.993 2.993 0 0 0 2.776-1.847A2.999 2.999 0 1 0 7 36a3 3 0 0 0 2.992 3zm0-3.307a.313.313 0 0 1 .233.533.308.308 0 0 1-.342.074.315.315 0 0 1 .11-.607zM35 58a3.003 3.003 0 0 0-2.774 1.856 2.999 2.999 0 0 0 3.927 3.912A3 3 0 0 0 35 58zm0 3.305a.314.314 0 1 1-.001-.627.314.314 0 0 1 .001.627zM34.992 14a2.993 2.993 0 0 0 2.776-1.847A2.999 2.999 0 1 0 32 11a3 3 0 0 0 2.992 3zm0-3.307a.313.313 0 0 1 .233.533.308.308 0 0 1-.342.074.315.315 0 0 1 .11-.607z"/>
    </g>
</svg>
