<svg width="62" height="62" viewBox="0 0 62 62" xmlns="http://www.w3.org/2000/svg">
    <g fill="#FFF" fill-rule="evenodd">
        <path d="M61.983 28.09A31.066 31.066 0 0 0 45.69 3.68a31.166 31.166 0 0 0-29.382 0A31.066 31.066 0 0 0 .017 28.09a3.691 3.691 0 0 0 .94 2.836c.264.28.57.518.91.699a37.789 37.789 0 0 0 2.988 15.916 1.038 1.038 0 1 0 1.886-.86 36.033 36.033 0 0 1-2.804-14.603 3.634 3.634 0 0 0 3.31-3.303A23.816 23.816 0 0 1 19.74 10.07a23.891 23.891 0 0 1 22.52 0 23.814 23.814 0 0 1 12.494 18.705 3.636 3.636 0 0 0 3.31 3.303c.038 2.732-.221 10.935-4.262 17.286h.002a4.57 4.57 0 0 0-1.25-1.214 5.136 5.136 0 0 0-3.27-6.305l-2.615-.906a3.116 3.116 0 0 0-3.961 1.918l-4.863 13.995a3.104 3.104 0 0 0 1.922 3.953l2.614.907c1.3.453 2.726.37 3.964-.234a5.14 5.14 0 0 0 2.52-2.708c.151.018.302.031.452.036a4.887 4.887 0 0 0 2.513-.722 6.208 6.208 0 0 0 2.633-3.317c.35-.996.446-2.063.283-3.107 5.413-7.376 5.473-17.43 5.39-20.035h-.003c.34-.184.646-.42.91-.7.698-.77 1.04-1.799.94-2.834zM47.229 57.243v.005l-.205.59h-.002a3.114 3.114 0 0 1-3.961 1.917l-2.615-.907a1.036 1.036 0 0 1-.64-1.318l4.863-13.994a1.037 1.037 0 0 1 1.32-.64l2.615.907a3.104 3.104 0 0 1 1.922 3.954l-3.297 9.486zm5.276-3.153h-.003c-.3.919-.915 1.703-1.737 2.216a2.932 2.932 0 0 1-1.157.406l2.248-6.473c.291.296.514.648.66 1.034a4.123 4.123 0 0 1-.014 2.817h.003zm7.006-24.556h-.003c-.29.32-.703.504-1.138.502a1.58 1.58 0 0 1-1.551-1.458A25.89 25.89 0 0 0 43.24 8.241a25.978 25.978 0 0 0-24.48 0A25.89 25.89 0 0 0 5.182 28.577a1.58 1.58 0 0 1-1.551 1.458 1.522 1.522 0 0 1-1.139-.502 1.625 1.625 0 0 1-.41-1.246A29.002 29.002 0 0 1 17.287 5.505a29.105 29.105 0 0 1 27.427 0 29.002 29.002 0 0 1 15.204 22.782c.044.453-.103.906-.41 1.246h.003z"/>
        <path d="M19.008 43.066a3.088 3.088 0 0 0-3.927-1.895l-2.595.897v-.003a5.08 5.08 0 0 0-3.24 6.235c-.87.561-1.53 1.39-1.883 2.361a6.325 6.325 0 0 0 2.6 7.465c.75.458 1.612.706 2.492.714.15-.005.3-.018.45-.036a5.109 5.109 0 0 0 6.427 2.91l2.595-.897a3.077 3.077 0 0 0 1.764-1.562 3.063 3.063 0 0 0 .139-2.348l-4.822-13.84zm-7.988 13.3a4.286 4.286 0 0 1-1.736-4.978c.144-.381.365-.73.653-1.019l2.23 6.402v-.003a2.873 2.873 0 0 1-1.147-.402zm10.82 1.995c-.119.246-.33.433-.587.522l-2.595.897v-.003a3.09 3.09 0 0 1-3.927-1.895l-.203-.584v-.005l-3.269-9.382a3.067 3.067 0 0 1 1.903-3.91l2.595-.896h-.002a1.03 1.03 0 0 1 1.309.632l4.822 13.843c.09.256.074.538-.047.781zM20.756 29.672c2.717-2.883 6.402-4.5 10.244-4.5 3.841 0 7.526 1.617 10.244 4.5.19.209.453.325.727.328.274 0 .535-.114.73-.318.194-.206.302-.485.299-.776a1.12 1.12 0 0 0-.31-.77C39.591 24.847 35.384 23 31 23c-4.384 0-8.59 1.848-11.69 5.135a1.12 1.12 0 0 0-.31.771c-.003.29.105.57.3.776.194.204.455.318.729.318a.994.994 0 0 0 .727-.328zM37.718 33.106C35.937 31.117 33.518 30 31 30s-4.937 1.117-6.718 3.106a1.214 1.214 0 0 0 .01 1.567.928.928 0 0 0 1.401.014c2.933-3.27 7.68-3.27 10.614 0a.928.928 0 0 0 1.401-.014c.385-.433.39-1.128.01-1.567zM28.292 37.165a1.115 1.115 0 0 0 .013 1.519c.4.416 1.051.422 1.46.013.68-.709 1.79-.709 2.47 0a1.015 1.015 0 0 0 1.46-.013c.4-.417.408-1.094.013-1.519a3.73 3.73 0 0 0-5.416 0z"/>
    </g>
</svg>
