<svg width="18" height="19" viewBox="0 0 18 19" xmlns="http://www.w3.org/2000/svg">
    <path d="M9.082 18.25c1.52-.003 2.628-.022 3.32-.059.743-.039 1.387-.15 1.934-.332a4.553 4.553 0 0 0 1.7-1.074 4.553 4.553 0 0 0 1.073-1.7c.183-.546.293-1.19.332-1.933.04-.742.059-1.96.059-3.652v-.651a99.257 99.257 0 0 0-.04-2.982c-.051-.755-.168-1.406-.35-1.953a4.553 4.553 0 0 0-1.075-1.7 4.553 4.553 0 0 0-1.7-1.073c-.546-.183-1.19-.293-1.933-.332C11.66.769 10.442.75 8.75.75h-.332C6.898.753 5.79.772 5.098.81c-.743.039-1.387.15-1.934.332a4.553 4.553 0 0 0-1.7 1.074 4.553 4.553 0 0 0-1.073 1.7C.208 4.46.098 5.104.059 5.847.019 6.59 0 7.808 0 9.5v.332c.003 1.52.022 2.628.059 3.32.039.743.15 1.387.332 1.934a4.553 4.553 0 0 0 1.074 1.7 4.164 4.164 0 0 0 1.7 1.034c.546.209 1.19.332 1.933.371.742.04 1.96.059 3.652.059h.332zm.605-1.563h-1.9a51.83 51.83 0 0 1-2.084-.039c-.963-.052-1.667-.156-2.11-.312-.78-.313-1.34-.872-1.679-1.68-.156-.442-.26-1.146-.312-2.11-.026-.572-.04-1.38-.04-2.421l.001-1.589c.003-.88.015-1.574.039-2.083.052-.99.156-1.693.312-2.11a2.82 2.82 0 0 1 1.68-1.679c.442-.156 1.146-.26 2.11-.312.572-.026 1.38-.04 2.421-.04h1.25c1.042 0 1.849.014 2.422.04.99.052 1.693.156 2.11.312a2.82 2.82 0 0 1 1.679 1.68c.156.416.26 1.12.312 2.11.026.546.04 1.353.04 2.421v1.25c0 1.042-.014 1.849-.04 2.422-.052.963-.156 1.667-.312 2.11-.313.78-.872 1.34-1.68 1.679-.416.156-1.12.26-2.11.312-.546.026-1.353.04-2.421.04h.312zm3.75-10.82a.951.951 0 0 0 .723-.312c.195-.209.306-.456.332-.742 0-.287-.104-.534-.312-.743a1.014 1.014 0 0 0-.743-.312c-.286 0-.533.104-.742.312a1.014 1.014 0 0 0-.312.743c0 .286.104.533.312.742.209.208.456.312.742.312zM8.75 13.992c.807 0 1.556-.202 2.246-.605a4.505 4.505 0 0 0 1.64-1.64c.404-.691.606-1.44.606-2.247 0-.807-.202-1.556-.605-2.246a4.505 4.505 0 0 0-1.64-1.64 4.371 4.371 0 0 0-2.247-.606c-.807 0-1.556.202-2.246.605-.69.404-1.237.95-1.64 1.64A4.371 4.371 0 0 0 4.257 9.5c0 .807.202 1.556.605 2.246.404.69.95 1.237 1.64 1.64.691.404 1.44.606 2.247.606zm0-1.562a2.822 2.822 0 0 1-2.07-.86 2.822 2.822 0 0 1-.86-2.07c0-.807.287-1.497.86-2.07a2.822 2.822 0 0 1 2.07-.86c.807 0 1.497.287 2.07.86.573.573.86 1.263.86 2.07 0 .807-.287 1.497-.86 2.07a2.822 2.822 0 0 1-2.07.86z" fill="#FFF" fill-rule="nonzero" opacity=".599"/>
</svg>
