<svg width="20" height="20" viewBox="0 0 20 20" xmlns="http://www.w3.org/2000/svg">
    <path d="M10.472 20c1.69-.004 2.925-.026 3.702-.067.848-.045 1.585-.171 2.21-.38a5.203 5.203 0 0 0 1.942-1.227c.55-.55.96-1.198 1.228-1.942.208-.625.334-1.362.379-2.21.045-.848.067-2.24.067-4.174l-.001-.921c-.004-1.46-.019-2.536-.044-3.23-.06-.864-.193-1.608-.401-2.233a5.203 5.203 0 0 0-1.228-1.942A5.203 5.203 0 0 0 16.384.446c-.625-.208-1.362-.334-2.21-.379C13.326.022 11.934 0 10 0h-.472c-1.69.004-2.925.026-3.702.067-.848.045-1.585.171-2.21.38a5.203 5.203 0 0 0-1.942 1.227c-.55.55-.96 1.198-1.228 1.942-.208.625-.334 1.362-.379 2.21C.022 6.674 0 8.066 0 10v.472c.004 1.69.026 2.925.067 3.702.045.848.171 1.585.38 2.21a5.203 5.203 0 0 0 1.227 1.942c.55.55 1.198.945 1.942 1.183.625.238 1.362.38 2.21.424.848.045 2.24.067 4.174.067h.472zm.242-1.786H9.286c-1.19 0-2.113-.015-2.768-.044-1.101-.06-1.905-.179-2.41-.358-.894-.357-1.534-.997-1.92-1.92-.18-.505-.298-1.309-.358-2.41a65.132 65.132 0 0 1-.044-2.768V9.286c0-1.19.015-2.113.044-2.768.06-1.131.179-1.935.357-2.41.358-.923.998-1.563 1.92-1.92.506-.18 1.31-.298 2.41-.358.656-.03 1.578-.044 2.769-.044h1.428c1.19 0 2.113.015 2.768.044 1.131.06 1.935.179 2.41.357.923.358 1.563.998 1.92 1.92.18.476.298 1.28.358 2.41.03.626.044 1.548.044 2.769v1.428c0 1.19-.015 2.113-.044 2.768-.06 1.101-.179 1.905-.358 2.41-.357.894-.997 1.534-1.92 1.92-.475.18-1.279.298-2.41.358-.625.03-1.547.044-2.768.044zm4.643-12.366c.328 0 .603-.119.826-.357.223-.238.35-.52.38-.848 0-.328-.12-.61-.358-.848a1.159 1.159 0 0 0-.848-.357c-.327 0-.61.119-.848.357s-.357.52-.357.848c0 .327.119.61.357.848s.52.357.848.357zM10 15.134c.923 0 1.778-.23 2.567-.692a5.149 5.149 0 0 0 1.875-1.875A4.996 4.996 0 0 0 15.134 10c0-.923-.23-1.778-.692-2.567a5.149 5.149 0 0 0-1.875-1.875A4.996 4.996 0 0 0 10 4.866c-.923 0-1.778.23-2.567.692a5.149 5.149 0 0 0-1.875 1.875A4.996 4.996 0 0 0 4.866 10c0 .923.23 1.778.692 2.567a5.149 5.149 0 0 0 1.875 1.875 4.996 4.996 0 0 0 2.567.692zm0-1.786a3.225 3.225 0 0 1-2.366-.982A3.225 3.225 0 0 1 6.652 10c0-.923.327-1.711.982-2.366A3.225 3.225 0 0 1 10 6.652c.923 0 1.711.327 2.366.982s.982 1.443.982 2.366-.327 1.711-.982 2.366a3.225 3.225 0 0 1-2.366.982z" fill="#2736DD" fill-rule="nonzero"/>
</svg>
