<svg width="70" height="50" viewBox="0 0 70 50" xmlns="http://www.w3.org/2000/svg">
    <g fill="#FFF" fill-rule="evenodd">
        <path d="M46.879 25.578c-.188 0-.363.023-.547.047-2.89-4.344-7.687-6.926-12.906-6.926a15.457 15.457 0 0 0-15.348 13.18 10.211 10.211 0 0 0-7.105-2.855C5.258 29.024.606 33.672.606 39.387c0 5.718 4.652 10.367 10.367 10.367h35.906c6.66 0 12.082-5.422 12.082-12.086 0-6.66-5.422-12.09-12.082-12.09zm0 23.047H10.973c-5.09 0-9.234-4.145-9.234-9.238 0-5.09 4.144-9.235 9.234-9.235 2.586 0 4.988 1.063 6.77 2.996a.566.566 0 0 0 .414.184h.382a.567.567 0 0 0 .563-.512 14.332 14.332 0 0 1 14.324-12.988c4.945 0 9.488 2.504 12.148 6.703.113.176.312.297.52.258.12-.008.238-.023.355-.043.14-.015.277-.039.426-.039 6.039 0 10.953 4.914 10.953 10.957.004 6.043-4.914 10.957-10.95 10.957h.001z"/>
        <path d="M69.262 23.75a.55.55 0 0 0-.61-.172 15.94 15.94 0 0 1-4.269.84c-8.723.535-16.207-6.23-16.684-14.953-.152-2.902.496-5.8 1.895-8.383A.554.554 0 0 0 49.53.45a.56.56 0 0 0-.617-.172c-7.152 2.45-11.863 9.426-11.45 16.97.017.312.255.539.595.535a.56.56 0 0 0 .53-.598c-.355-6.566 3.438-12.668 9.364-15.316a16.868 16.868 0 0 0-1.383 7.66c.516 9.344 8.52 16.461 17.875 16.023 1.051-.062 2.11-.222 3.157-.48a15.875 15.875 0 0 1-7.54 6.058.563.563 0 0 0 .204 1.09.6.6 0 0 0 .203-.035 17.056 17.056 0 0 0 8.863-7.8.57.57 0 0 0-.07-.634z"/>
    </g>
</svg>
