<svg width="96" height="15" viewBox="0 0 96 15" xmlns="http://www.w3.org/2000/svg">
    <g fill="#E2C736" fill-rule="evenodd">
        <path d="M8.178 11.166 3.37 14.86l2.012-5.734L.4 5.676l6.05.15L8.179 0l1.727 5.827 6.05-.151-4.983 3.45 2.013 5.734zM28.089 11.166l-4.807 3.694 2.012-5.734-4.983-3.45 6.05.15L28.09 0l1.727 5.827 6.05-.151-4.983 3.45 2.013 5.734zM48 11.166l-4.807 3.694 2.012-5.734-4.983-3.45 6.05.15L48 0l1.727 5.827 6.05-.151-4.982 3.45 2.012 5.734zM67.911 11.166l-4.807 3.694 2.013-5.734-4.983-3.45 6.05.15L67.911 0l1.727 5.827 6.05-.151-4.982 3.45 2.012 5.734zM87.822 11.166l-4.807 3.694 2.013-5.734-4.983-3.45 6.05.15L87.822 0l1.727 5.827 6.05-.151-4.982 3.45 2.012 5.734z"/>
    </g>
</svg>
