<svg width="22" height="15" viewBox="0 0 22 15" xmlns="http://www.w3.org/2000/svg">
    <path d="m11.164 0 3.555.04.35.01c2.299.08 3.77.206 4.415.38.469.13.873.364 1.211.703.339.338.573.742.703 1.21.183.704.313 1.772.391 3.204l.039 1.953-.039 1.953-.019.33c-.08 1.292-.203 2.263-.372 2.912-.13.443-.364.834-.703 1.172a2.708 2.708 0 0 1-1.21.703c-.678.183-2.266.313-4.766.39l-3.555.04-3.555-.04-.35-.01c-2.299-.08-3.77-.206-4.415-.38a2.708 2.708 0 0 1-1.211-.703 2.724 2.724 0 0 1-.703-1.172c-.183-.703-.313-1.784-.391-3.242L.5 7.5l.002-.353c.004-.483.016-1.017.037-1.6.078-1.432.208-2.5.39-3.203.13-.469.365-.873.704-1.211A2.708 2.708 0 0 1 2.843.43C3.522.247 5.11.117 7.61.04L11.164 0zM8.976 4.336v6.367L14.562 7.5 8.976 4.336z" fill="#FFF" fill-rule="nonzero" opacity=".599"/>
</svg>
